# xmcd
#
# Track frame offsets:
#	150
#	17459
#	41450
#	60252
#	77318
#	94961
#	112676
#	124270
#	144837
#	155992
#	181970
#	199817
#	221229
#	248016
#	266046
#	285550
#	305824
#	324137
#	340834
#
# Disc length: 4783 seconds
#
# Revision: 2
# Processed by: cddbd v1.5.2PL0 Copyright (c) Steve Scherf et al.
# Submitted via: EasyCDDAExtractor 11.1.0.1
#
DISCID=0412ad13
DTITLE=Various Artist - Byron Bay Bluesfest 2005 - Disc 2
DYEAR=2005
DGENRE=Blues
TTITLE0=REM - Try Not To Breathe
TTITLE1=John Butler Trio - What You Want
TTITLE2=Missy Higgins - Casualty
TTITLE3=Gomez - Catch Me Up
TTITLE4=G Love And Special Sauce - Baby's Got Sauce
TTITLE5=The Beautiful Girls - Blackbird
TTITLE6=Solomon Burke - If You Need Me
TTITLE7=Jimmy Barnes - Every Beat (dark reggae mix)
TTITLE8=Bo Diddley - Who Do You Love
TTITLE9=Parliament - Tear The Roof Off The Sucker
TTITLE10=Janis Ian - Forever Young
TTITLE11=Bebel Gilberto - Aganju
TTITLE12=Roy Ayers - Love Will Bring Us Back Together Again
TTITLE13=Joel Turner And The Modern Day Poets - These Kids
TTITLE14=The Whitlams - No Aphrodisiac
TTITLE15=Anne McCue - I Want You Back
TTITLE16=John Lee Hooker, Jr. - Blues Ain't Nothin' But A Pimp
TTITLE17=Eran James - Tired Of Being Alone
TTITLE18=Cake - Take It All Away
EXTD=The 16th Annual East Coast International Blues and Roots Music Festival, By
EXTD=ron Bay, NSW Australia
EXTT0=
EXTT1=
EXTT2=
EXTT3=
EXTT4=
EXTT5=
EXTT6=
EXTT7=
EXTT8=
EXTT9=(Give Up The Funk)
EXTT10=
EXTT11=
EXTT12=
EXTT13=
EXTT14=
EXTT15=
EXTT16=
EXTT17=
EXTT18=
PLAYORDER=
